<svg id="Layer_1" data-name="Layer 1" xmlns="http://www.w3.org/2000/svg" viewBox="0 0 318 318"><defs><style>.cls-1{fill:#016fd0;}.cls-2{fill:#00175a;}.cls-3{opacity:0.4;}.cls-4{fill:#000;}.cls-5{fill:aqua;opacity:0.38;}.cls-6{opacity:0.2;}</style></defs><path class="cls-1" d="M207,47h-.49A25,25,0,0,0,182,72V201.34A18.65,18.65,0,0,1,163.34,220H113V72A25,25,0,0,0,88.49,47c-.5,0-1,0-1.49,0v0H0V0H160a160,160,0,0,1,26.16,2.15C214,33.05,207,47,207,47Z"/><path class="cls-2" d="M64.15,65A25.31,25.31,0,0,0,63,72.56V318H0V65Z"/><path class="cls-2" d="M87,47v0A25.32,25.32,0,0,0,64.15,65H0V47Z"/><path class="cls-3" d="M87,47v0A25.32,25.32,0,0,0,64.15,65H0V47Z"/><path class="cls-4" d="M318,158V160A158,158,0,0,1,160,318H113V270h53.5a65.5,65.5,0,0,0,65.33-60.74v0c.11-1.55.17-3.13.17-4.71V72.56c0-.22,0-.43,0-.64v0c.86-7.24,3.38-48.22-45.76-69.72A158.07,158.07,0,0,1,318,158Z"/><path class="cls-5" d="M232,72.56V204.5c0,1.58-.06,3.16-.17,4.71V73s.07-.38.15-1.08C232,72.13,232,72.34,232,72.56Z"/><path class="cls-1" d="M232,71.89C231.63,58.32,220.57,47,207,47c0,0,7-14-20.87-44.85h.09C235.36,23.67,232.84,64.65,232,71.89Z"/><path class="cls-6" d="M232,71.89C231.63,58.32,220.57,47,207,47c0,0,7-14-20.87-44.85h.09C235.36,23.67,232.84,64.65,232,71.89Z"/></svg>